<?xml version="1.0" standalone="no"?>
<!DOCTYPE svg PUBLIC "-//W3C//DTD SVG 20010904//EN"
 "http://www.w3.org/TR/2001/REC-SVG-20010904/DTD/svg10.dtd">
<svg version="1.0" xmlns="http://www.w3.org/2000/svg"
 width="474.000000pt" height="474.000000pt" viewBox="0 0 474.000000 474.000000"
 preserveAspectRatio="xMidYMid meet">
<metadata>
Created by potrace 1.11, written by Peter Selinger 2001-2013
</metadata>
<g transform="translate(0.000000,474.000000) scale(0.100000,-0.100000)"
fill="#000000" stroke="none">
<path d="M270 4428 c0 -4 14 -36 31 -70 16 -35 50 -111 74 -170 l44 -108 -47
-62 c-51 -68 -111 -191 -136 -277 -20 -69 -15 -63 33 35 42 86 157 247 171
239 13 -8 86 -239 120 -378 37 -151 51 -243 90 -570 47 -403 40 -712 -25
-1146 -54 -355 -82 -481 -151 -694 -43 -130 -180 -507 -189 -515 -1 -2 -36 13
-76 33 l-74 36 35 -33 c20 -18 50 -44 67 -58 l32 -25 -54 -135 c-72 -178 -72
-228 -2 -253 47 -17 79 36 136 221 18 56 35 102 39 102 4 0 41 -14 82 -30 187
-77 430 -123 645 -123 460 -1 770 127 1095 453 147 147 238 270 320 435 154
309 223 649 224 1105 1 453 -59 715 -245 1067 -121 231 -223 376 -350 499
-175 169 -406 291 -684 361 -138 34 -363 43 -485 18 -181 -37 -339 -108 -469
-211 -38 -31 -73 -54 -76 -52 -4 1 -35 57 -70 123 -66 127 -105 195 -105 183z
m1056 -143 c224 -38 419 -113 571 -217 135 -92 351 -325 471 -508 142 -215
255 -519 288 -773 21 -160 15 -638 -11 -797 -72 -457 -227 -783 -497 -1050
-221 -219 -563 -386 -859 -421 -95 -11 -404 -8 -416 5 -3 2 1 14 7 26 9 17 8
26 -5 46 -18 28 -32 30 -57 7 -22 -20 -23 -31 -1 -55 17 -19 16 -19 -7 -14
-14 3 -43 10 -65 15 l-40 8 30 12 c42 17 65 40 65 66 0 32 -22 37 -61 14 -74
-42 -78 -43 -122 -32 l-42 11 30 -24 c33 -26 26 -30 -26 -13 -19 6 -40 13 -48
15 -9 3 -7 9 8 22 73 60 -9 171 -87 116 -25 -17 -31 -71 -10 -92 9 -9 9 -12
-3 -12 -44 1 -44 13 6 167 98 308 145 481 194 728 86 434 124 912 101 1260
-32 497 -106 857 -240 1178 l-32 78 23 26 c58 62 195 144 295 177 145 47 368
60 540 31z m-799 -3591 c8 -22 -15 -44 -26 -25 -10 16 -4 41 10 41 5 0 12 -7
16 -16z m248 -81 c-30 -21 -51 -16 -24 6 13 11 28 17 33 14 5 -4 1 -12 -9 -20z
m85 -39 c0 -8 -4 -12 -10 -9 -5 3 -10 10 -10 16 0 5 5 9 10 9 6 0 10 -7 10
-16z"/>
<path d="M1380 4235 c134 -45 308 -130 386 -188 33 -24 90 -72 127 -107 68
-63 91 -68 38 -8 -16 19 -32 50 -36 71 -6 31 -16 43 -64 73 -104 66 -242 126
-355 154 -176 44 -217 46 -96 5z"/>
<path d="M1910 4007 c0 -13 14 -41 30 -62 17 -21 30 -41 31 -44 1 -3 3 -24 5
-45 2 -24 13 -49 27 -65 23 -25 120 -165 142 -205 15 -26 31 -16 27 17 -2 16
2 35 8 43 7 7 10 23 7 34 -6 22 3 26 21 8 25 -25 23 3 -4 49 -29 50 -205 233
-261 272 l-33 22 0 -24z m166 -229 l2 -32 -14 24 c-7 14 -13 34 -14 45 0 34
24 -2 26 -37z"/>
<path d="M2247 3648 c4 -22 4 -22 -10 -5 -15 18 -16 18 -26 -1 -5 -10 -7 -28
-4 -40 3 -13 1 -22 -6 -22 -6 0 -11 -7 -11 -15 0 -8 -5 -24 -12 -34 -10 -16
-6 -31 20 -88 18 -38 32 -81 32 -94 0 -36 40 -152 57 -166 12 -9 12 -16 3 -33
-6 -12 -8 -29 -5 -38 4 -9 13 -60 21 -112 8 -52 20 -124 28 -159 8 -35 18
-104 22 -152 6 -75 9 -89 24 -89 10 0 22 -12 28 -27 27 -73 25 -70 30 -43 2
14 10 32 17 40 21 23 17 122 -11 258 -32 153 -24 191 24 117 26 -41 27 -49 7
-41 -12 4 -15 -4 -15 -38 0 -49 7 -61 27 -45 10 9 13 7 13 -8 0 -10 -5 -24
-12 -31 -9 -9 -8 -32 1 -97 13 -83 8 -161 -8 -150 -9 5 -15 -14 -30 -90 -8
-39 -9 -39 -10 -7 0 17 -5 32 -11 32 -5 0 -22 26 -37 58 l-27 57 -8 -215 c-8
-238 -12 -285 -28 -380 -6 -36 -14 -104 -19 -153 -4 -48 -11 -90 -14 -93 -3
-4 0 -19 8 -35 8 -15 15 -37 15 -48 0 -26 17 -36 36 -20 13 11 14 6 8 -42 -4
-30 -14 -70 -22 -89 -14 -34 -14 -35 5 -18 20 19 59 23 80 10 10 -6 8 -17 -7
-45 -22 -40 -31 -118 -14 -124 12 -4 19 9 85 169 34 84 51 140 59 200 13 106
13 108 -5 108 -10 0 -15 10 -15 33 0 17 -7 41 -15 51 -10 14 -15 15 -15 6 0
-10 -3 -11 -10 -4 -8 8 -8 19 0 38 10 27 10 27 31 7 11 -10 19 -27 17 -38 -6
-24 20 -75 35 -70 13 4 16 24 47 284 26 228 26 280 0 288 -16 5 -20 15 -20 46
0 24 -4 38 -10 34 -5 -3 -10 -19 -10 -35 0 -21 -4 -28 -14 -24 -10 4 -16 -17
-25 -86 -7 -50 -10 -94 -7 -97 3 -4 6 4 6 16 0 30 17 18 35 -26 18 -42 20 -83
4 -83 -15 0 -38 31 -39 51 0 9 -10 19 -21 22 -21 6 -21 10 -15 74 4 37 11 72
17 78 16 16 10 64 -11 82 -11 10 -20 25 -20 34 0 25 38 12 42 -14 8 -56 48 3
48 71 0 18 5 32 10 32 6 0 10 -13 10 -30 0 -16 5 -30 11 -30 7 0 10 -17 7 -45
-3 -45 4 -57 19 -32 4 6 6 77 4 157 -2 109 -6 151 -18 169 -12 19 -17 21 -24
10 -13 -21 -25 2 -39 76 -6 34 -15 68 -20 75 -13 21 -23 5 -12 -17 18 -35 34
-304 20 -319 -12 -12 -17 -1 -25 51 -4 35 -3 46 5 41 8 -5 12 0 12 13 0 21
-34 198 -45 237 -10 32 22 40 51 13 14 -13 25 -38 29 -70 5 -34 12 -49 22 -49
23 0 8 84 -43 241 -42 128 -70 179 -92 165 -5 -3 -17 3 -27 14 -10 11 -30 20
-44 20 -34 0 -84 -34 -93 -62 -5 -20 -6 -18 -7 9 -1 41 8 63 25 63 8 0 19 12
24 26 8 19 15 24 28 19 9 -4 26 -10 37 -13 11 -3 24 -11 28 -19 14 -23 25 -14
23 20 -3 37 -26 85 -102 212 -51 85 -95 145 -107 145 -3 0 -3 -10 0 -22z m56
-147 c13 -5 27 -17 31 -27 6 -17 5 -17 -14 1 -21 19 -29 8 -8 -13 6 -6 9 -14
6 -17 -3 -4 -15 3 -26 15 -11 12 -25 19 -31 15 -12 -7 -15 17 -4 28 9 9 17 9
46 -2z m-37 -76 c7 -29 1 -41 -15 -30 -14 8 -14 55 -1 55 5 0 12 -11 16 -25z
m244 -322 c6 -16 14 -36 20 -45 7 -13 6 -16 -4 -12 -13 5 -46 62 -46 78 0 18
22 2 30 -21z m-25 -52 c8 -23 10 -43 5 -46 -11 -7 -29 25 -29 51 1 10 -2 30
-6 44 -5 21 -5 22 5 8 6 -10 17 -35 25 -57z m-105 -130 c0 -11 4 -22 9 -25 12
-8 20 -55 10 -62 -5 -3 -9 0 -9 6 0 6 -4 9 -9 6 -5 -3 -4 -25 1 -52 9 -42 6
-65 -8 -52 -12 13 -24 141 -14 153 6 7 8 20 4 29 -3 9 -1 16 5 16 6 0 11 -9
11 -19z m50 -191 c0 -28 -4 -40 -14 -40 -20 0 -26 25 -13 54 17 37 27 32 27
-14z m1 -410 c-1 -24 2 -40 8 -40 6 0 11 -13 11 -29 0 -17 5 -33 10 -36 6 -3
10 -22 10 -41 0 -40 -19 -47 -21 -6 -2 26 -2 26 -6 2 -3 -14 -9 -29 -15 -35
-7 -7 -9 11 -5 58 4 40 2 67 -3 67 -6 0 -10 -14 -10 -31 0 -19 -4 -28 -11 -23
-7 4 -8 19 -4 38 3 17 6 50 5 74 -1 50 7 69 23 53 6 -6 10 -29 8 -51z m-46
-217 c-4 -16 -10 -74 -14 -130 -4 -57 -10 -106 -14 -109 -13 -13 -18 48 -8 96
6 28 11 78 11 110 0 49 3 60 16 60 13 0 15 -6 9 -27z m102 -347 c-8 -73 -30
-164 -35 -143 -2 9 1 40 7 68 6 27 11 70 11 95 0 31 4 43 11 38 7 -4 10 -25 6
-58z m-39 37 c14 -27 3 -78 -20 -92 -19 -12 -20 -11 -12 6 4 10 8 37 9 61 0
45 8 53 23 25z m-38 -2 c0 -51 -31 -94 -42 -59 -9 27 5 68 23 68 11 0 19 -4
19 -9z m100 -199 c0 -10 -7 -27 -15 -40 -9 -12 -23 -39 -31 -59 l-14 -38 5 34
c3 19 12 48 20 64 8 17 15 36 15 44 0 7 5 13 10 13 6 0 10 -8 10 -18z m-51
-42 c-6 -16 -17 -30 -25 -30 -14 0 -10 24 9 48 17 22 26 12 16 -18z"/>
<path d="M2251 2828 c-2 -72 -32 -264 -56 -358 -58 -227 -157 -415 -239 -454
-53 -25 -93 -21 -128 14 -26 26 -30 36 -25 66 7 43 23 64 48 64 20 0 39 -28
32 -47 -3 -7 -17 -13 -31 -13 -25 0 -25 -1 -9 -17 24 -25 51 -6 55 39 3 35
-17 64 -48 68 -58 8 -90 -24 -90 -92 0 -99 51 -144 153 -135 75 7 124 39 175
114 44 65 61 105 108 248 39 119 45 105 8 -21 -46 -161 -111 -271 -193 -328
-36 -25 -57 -33 -136 -51 l-30 -7 35 -18 c19 -11 51 -19 70 -20 30 0 44 9 105
73 109 113 177 261 210 454 7 43 13 64 14 46 1 -17 -6 -64 -14 -104 -35 -167
-105 -309 -207 -424 -57 -65 -58 -67 -58 -125 0 -33 3 -60 8 -60 4 0 20 9 37
20 22 14 46 54 93 157 137 298 172 449 157 684 -7 112 -25 150 -26 57 0 -29
-4 -71 -8 -93 -4 -22 -5 28 -3 110 3 83 2 159 -1 170 -3 12 -5 5 -6 -17z m36
-320 c-2 -13 -4 -3 -4 22 0 25 2 35 4 23 2 -13 2 -33 0 -45z m-40 -20 c-3 -7
-5 -2 -5 12 0 14 2 19 5 13 2 -7 2 -19 0 -25z m-10 -50 c-3 -8 -6 -5 -6 6 -1
11 2 17 5 13 3 -3 4 -12 1 -19z m-207 -477 c0 -12 -42 -42 -49 -36 -5 6 29 45
41 45 4 0 8 -4 8 -9z m60 -70 c0 -6 -5 -13 -11 -17 -6 -3 -8 -15 -6 -26 4 -14
2 -18 -10 -14 -8 3 -17 6 -19 6 -10 0 -3 25 13 42 17 20 33 24 33 9z"/>
<path d="M2306 2419 c-13 -160 -62 -332 -145 -514 -39 -85 -46 -111 -49 -177
-2 -43 -1 -78 4 -78 17 0 86 55 99 79 7 14 16 53 20 86 4 33 23 141 42 240 23
122 36 223 40 313 6 146 0 177 -11 51z m-128 -636 c-4 -39 -28 -42 -28 -4 0
21 5 31 16 31 11 0 14 -8 12 -27z"/>
<path d="M758 2378 c-1 -51 -1 -111 0 -133 1 -22 -5 -86 -13 -143 -8 -56 -15
-113 -15 -125 1 -21 1 -21 12 -2 6 11 20 28 32 37 24 19 24 24 11 281 -4 92
-12 170 -17 173 -4 3 -9 -37 -10 -88z"/>
<path d="M777 2004 c-4 -4 -7 -16 -7 -26 0 -10 -12 -30 -26 -45 -22 -22 -27
-41 -40 -137 -8 -61 -17 -132 -20 -158 -6 -39 -4 -49 10 -54 10 -4 16 -18 16
-35 0 -22 5 -29 19 -29 16 0 19 10 24 73 3 39 8 83 12 96 6 17 5 22 -3 17 -8
-5 -12 0 -12 13 0 12 -5 21 -11 21 -6 0 -9 6 -6 13 2 6 9 11 15 10 11 -3 36
93 28 106 -3 4 1 34 9 67 13 54 9 85 -8 68z"/>
<path d="M2030 1658 c-12 -40 -27 -93 -35 -118 -8 -25 -17 -62 -21 -82 -7 -42
-18 -42 -28 -1 -3 16 -35 59 -71 97 l-65 69 5 -89 c3 -49 8 -108 10 -132 l5
-42 -38 24 c-148 97 -365 21 -365 -128 0 -133 151 -186 217 -76 44 76 -14 157
-98 136 -59 -15 -77 -82 -31 -112 23 -15 27 -15 50 0 22 14 24 20 14 38 l-12
22 -8 -22 c-10 -27 -25 -28 -38 -4 -21 39 44 73 77 40 21 -21 14 -77 -13 -103
-30 -30 -64 -32 -99 -4 -22 17 -26 28 -26 69 0 124 159 190 300 124 30 -14 68
-37 83 -52 74 -69 108 -215 71 -297 -27 -60 -27 -62 -1 -33 14 15 35 53 47 85
36 97 47 103 151 81 100 -20 176 18 224 113 30 59 32 81 4 45 -24 -30 -57 -49
-112 -64 l-38 -11 50 47 c44 41 97 129 86 141 -2 2 -21 -11 -41 -29 -59 -51
-149 -83 -107 -37 38 41 81 121 102 191 35 113 27 114 -60 9 l-64 -77 -8 72
c-5 39 -13 72 -18 72 -5 0 -9 -8 -9 -17 0 -10 -9 -36 -19 -58 l-18 -40 -12 43
c-7 23 -12 74 -12 112 0 39 -2 70 -4 70 -2 0 -14 -33 -25 -72z m202 -175 c-30
-58 -88 -130 -97 -121 -11 10 29 85 72 135 25 30 48 52 50 49 2 -2 -9 -31 -25
-63z m-192 10 c0 -10 -4 -34 -9 -53 -5 -19 -12 -47 -15 -62 -4 -16 -11 -28
-16 -28 -15 0 -12 41 5 70 8 14 14 40 15 58 0 17 5 32 10 32 6 0 10 -8 10 -17z
m70 -57 c-12 -56 -56 -146 -70 -146 -6 0 -8 12 -4 28 7 33 75 175 80 169 3 -2
0 -26 -6 -51z m-181 -96 c10 -73 6 -108 -6 -60 -4 14 -24 58 -45 99 -42 82
-45 93 -24 85 8 -3 23 -1 33 5 20 11 23 2 42 -129z m321 -25 c-25 -26 -117
-59 -148 -53 -27 6 69 58 106 58 17 0 34 5 37 10 3 6 11 10 17 10 6 0 1 -11
-12 -25z m-32 -110 c44 0 50 -2 35 -12 -21 -16 -146 -17 -174 -2 -34 18 -11
32 40 23 25 -5 70 -9 99 -9z"/>
<path d="M652 1488 c-6 -35 -14 -83 -18 -108 -3 -25 -14 -65 -24 -90 -9 -25
-21 -67 -25 -94 -6 -45 -5 -49 9 -37 9 8 16 10 16 6 0 -4 7 -2 15 5 28 23 40
-2 25 -54 -7 -25 -9 -61 -6 -80 5 -28 3 -37 -13 -45 -17 -10 -19 -7 -23 28 -2
21 2 52 9 67 7 16 12 37 13 48 0 16 -2 17 -16 5 -9 -7 -25 -13 -36 -14 -26 -2
-34 -17 -41 -75 -3 -27 -24 -97 -46 -156 -49 -130 -51 -148 -13 -111 16 15 32
24 35 20 14 -13 51 -14 59 -1 4 8 8 -7 8 -34 0 -53 4 -56 40 -28 31 24 39 24
70 0 14 -11 31 -20 39 -20 12 0 12 2 -1 13 -9 6 -26 36 -39 65 -20 48 -21 63
-15 152 3 54 9 107 13 117 6 16 5 17 -12 3 -19 -15 -19 -14 -2 12 9 15 17 44
18 65 0 21 6 65 13 98 7 33 11 62 8 65 -3 3 -7 -1 -9 -7 -3 -7 -9 -13 -14 -13
-4 0 -5 8 -2 17 5 13 2 15 -11 10 -15 -6 -17 -3 -11 24 5 22 4 29 -4 25 -7 -4
-11 1 -11 13 0 12 3 21 6 21 12 0 33 -34 34 -52 0 -10 4 -18 10 -18 15 0 28
31 35 93 5 41 4 57 -5 57 -16 0 -36 22 -44 48 -12 37 -22 25 -34 -40z"/>
<path d="M1738 1260 c-23 -17 -28 -30 -28 -64 0 -52 18 -78 54 -78 31 0 46 15
46 50 0 23 -14 30 -25 12 -10 -16 -45 -12 -45 6 0 44 38 66 85 48 63 -25 59
-204 -8 -260 -43 -36 -107 -27 -107 17 0 25 27 36 52 20 18 -11 18 -10 8 9
-17 32 -41 36 -62 11 -59 -74 28 -141 122 -93 95 48 118 217 41 304 -36 40
-95 48 -133 18z"/>
<path d="M1986 1076 c-21 -40 -56 -93 -78 -117 -22 -24 -35 -36 -28 -26 7 9
11 20 8 22 -5 6 -58 -66 -58 -79 0 -4 23 8 50 28 l50 36 0 -29 c0 -20 9 -36
26 -50 27 -22 17 -29 -16 -11 -15 8 -17 6 -13 -9 3 -11 0 -28 -6 -38 -9 -15
-10 -14 -11 14 0 39 -29 52 -65 29 -29 -19 -31 -33 -8 -58 9 -10 11 -18 6 -18
-6 0 -16 7 -23 15 -17 21 -24 11 -10 -14 6 -12 8 -27 4 -33 -5 -7 -10 -3 -16
11 -9 26 -45 26 -62 -1 -8 -13 -7 -21 5 -33 22 -23 74 -9 117 33 32 30 46 38
73 41 4 1 30 23 59 50 45 42 51 53 48 82 -2 28 -8 36 -35 44 -30 10 -31 11
-13 23 11 7 20 23 20 36 0 12 5 37 11 54 6 17 9 40 7 51 -2 15 -14 0 -42 -53z
m19 -146 c3 -6 -1 -13 -10 -16 -19 -8 -30 0 -20 15 8 14 22 14 30 1z m-125
-110 c0 -5 -7 -10 -15 -10 -8 0 -15 5 -15 10 0 6 7 10 15 10 8 0 15 -4 15 -10z
m-110 -80 c0 -5 -4 -10 -10 -10 -5 0 -10 5 -10 10 0 6 5 10 10 10 6 0 10 -4
10 -10z"/>
<path d="M2072 1120 c-53 -22 -53 -97 1 -130 34 -21 25 -26 -17 -11 l-25 10
15 -34 c7 -19 11 -41 8 -49 -3 -9 -3 -16 0 -16 14 0 117 84 128 103 10 19 9
19 -13 3 -13 -9 -30 -16 -39 -15 -13 0 -13 1 0 6 26 10 50 35 50 54 0 34 -23
68 -53 79 -16 5 -30 10 -31 9 -1 0 -11 -4 -24 -9z m53 -50 c0 -8 -10 -16 -22
-18 -18 -3 -23 2 -23 18 0 16 5 21 23 18 12 -2 22 -10 22 -18z"/>
<path d="M1724 807 c-150 -133 -225 -177 -379 -227 -38 -12 -74 -26 -79 -31
-20 -18 33 -8 138 26 60 19 121 35 137 35 23 0 36 10 64 49 35 48 57 66 69 54
3 -3 -2 -12 -12 -19 -15 -12 -16 -14 -1 -29 25 -25 47 -8 55 42 4 25 21 65 40
94 19 27 30 49 25 49 -5 0 -31 -19 -57 -43z"/>
<path d="M617 709 c-19 -27 -11 -54 20 -68 52 -24 89 18 59 64 -20 31 -59 33
-79 4z m61 -28 c3 -8 -1 -12 -9 -9 -7 2 -15 10 -17 17 -3 8 1 12 9 9 7 -2 15
-10 17 -17z"/>
<path d="M1322 644 c-33 -20 -52 -25 -78 -21 -42 7 -43 2 -4 -18 45 -23 114
-20 146 8 18 16 25 30 21 40 -9 24 -35 21 -85 -9z"/>
<path d="M880 645 c-25 -14 -24 -14 18 -15 39 0 45 -4 74 -45 45 -64 88 -73
88 -18 0 15 -13 38 -34 59 -28 28 -41 34 -77 34 -24 -1 -55 -7 -69 -15z m156
-72 c-4 -4 -14 1 -22 11 -22 31 -17 43 8 19 12 -13 18 -26 14 -30z"/>
<path d="M1105 600 c-22 -24 -14 -47 20 -56 43 -11 73 34 43 64 -18 18 -43 15
-63 -8z m55 -21 c0 -5 -4 -9 -10 -9 -5 0 -10 7 -10 16 0 8 5 12 10 9 6 -3 10
-10 10 -16z"/>
<path d="M4463 3443 c-72 -138 -151 -335 -183 -458 -5 -16 -22 -79 -40 -140
-40 -139 -85 -336 -146 -635 -26 -129 -48 -236 -49 -238 -1 -1 -19 14 -40 33
-123 117 -342 157 -539 100 -105 -30 -155 -55 -272 -134 -245 -164 -396 -386
-455 -666 -16 -77 -16 -301 0 -385 24 -122 60 -216 106 -279 111 -151 285
-211 470 -163 112 29 274 97 307 129 33 31 36 47 8 38 -29 -9 -24 8 10 33 37
28 42 28 34 -3 -5 -20 -2 -25 14 -25 30 0 47 28 48 79 1 25 2 49 3 54 1 4 16
16 34 27 23 14 27 20 14 20 -40 0 -88 -35 -168 -122 -89 -98 -157 -148 -198
-148 -22 0 -20 3 18 23 46 23 138 109 204 190 22 26 56 56 78 67 52 27 128 27
157 0 50 -47 31 -120 -31 -120 -54 0 -79 42 -34 59 28 11 34 6 17 -14 -10 -12
-10 -19 -1 -28 28 -28 67 37 41 69 -30 35 -110 -4 -110 -55 0 -79 123 -91 170
-17 24 40 25 67 5 106 -20 39 -63 60 -122 60 -67 -1 -120 -28 -177 -91 l-48
-54 17 40 c9 22 30 74 46 115 15 41 28 66 29 55 1 -19 1 -19 11 -2 17 29 23
166 10 229 -15 71 -65 147 -111 170 -71 36 -160 17 -160 -33 0 -25 16 -25 23
1 6 23 46 35 84 25 15 -3 48 -28 74 -53 50 -50 80 -123 78 -191 l-1 -36 -8 32
c-21 88 -81 137 -161 130 -83 -7 -139 -70 -139 -155 0 -46 33 -101 73 -120 55
-27 137 26 137 88 0 42 -35 80 -75 80 -40 0 -57 -19 -53 -61 5 -56 66 -66 77
-13 3 16 1 17 -13 5 -20 -17 -40 -2 -34 25 4 23 34 30 53 14 22 -18 19 -77 -4
-90 -71 -38 -131 35 -101 125 15 45 61 71 113 61 94 -18 106 -117 40 -320 -19
-59 -41 -100 -87 -160 -76 -99 -152 -157 -139 -106 8 29 -14 52 -38 39 -24
-12 -25 -45 -1 -58 14 -9 11 -10 -16 -11 -29 0 -33 2 -27 21 5 13 2 25 -6 30
-15 9 -42 -9 -33 -22 9 -15 -13 -10 -26 5 -16 21 -9 60 13 64 10 2 27 -4 38
-14 17 -15 19 -15 19 -1 0 20 -38 47 -65 47 -34 0 -68 -38 -63 -71 3 -16 1
-29 -3 -29 -19 0 -101 95 -129 149 -71 142 -94 368 -56 548 77 365 246 611
486 706 96 38 229 61 278 47 72 -19 122 -76 122 -140 0 -31 -29 -70 -53 -70
-23 0 -49 26 -46 45 5 23 29 32 29 11 0 -9 5 -16 10 -16 16 0 12 37 -5 44 -39
14 -72 -33 -55 -79 17 -45 100 -47 133 -3 22 29 27 77 13 118 l-9 25 23 -20
c35 -32 50 -70 50 -130 0 -89 -48 -155 -114 -155 -24 0 -27 -3 -16 -10 24 -16
62 -11 98 10 35 22 65 77 77 143 5 25 11 35 17 29 7 -7 4 -51 -6 -129 -15
-113 -35 -367 -36 -463 0 -33 -3 -41 -10 -30 -8 12 -10 11 -10 -6 0 -12 -10
-34 -22 -49 l-21 -27 21 -17 c18 -13 21 -23 16 -52 -7 -39 11 -63 27 -38 7 12
9 11 9 -1 1 -27 11 -94 26 -180 45 -249 227 -369 416 -274 62 31 162 130 197
194 27 50 27 50 -56 -23 -137 -119 -288 -127 -382 -20 -81 91 -111 232 -111
513 0 103 3 208 6 233 6 41 9 45 25 37 10 -6 33 -10 52 -10 44 0 69 27 65 71
-2 26 -9 36 -31 43 -34 12 -61 -1 -65 -33 -4 -25 22 -29 36 -4 13 21 42 10 42
-17 0 -12 -10 -25 -25 -32 -22 -10 -30 -8 -53 9 -26 20 -27 24 -25 108 1 48 4
89 6 91 2 3 25 -5 52 -17 49 -21 107 -21 128 0 7 7 -1 8 -25 5 -61 -10 -158
56 -143 97 3 9 -9 20 -34 32 -25 11 -41 26 -45 42 -7 26 -72 98 -116 128 l-25
17 30 -14 c32 -15 84 -67 128 -127 14 -20 38 -40 52 -43 14 -4 25 -11 25 -16
0 -13 47 -13 55 -1 3 5 -11 15 -30 21 -28 9 -34 16 -30 33 2 12 16 90 30 172
84 482 194 934 326 1329 22 65 38 121 36 123 -2 1 -27 -41 -54 -94z m-888
-1374 c-93 -13 -144 -29 -220 -68 -130 -67 -261 -219 -337 -390 -17 -39 -34
-67 -38 -62 -3 7 -17 3 -36 -8 -23 -14 -34 -33 -49 -80 -18 -60 -34 -86 -36
-59 -2 20 -2 21 6 46 3 12 2 22 -3 22 -12 0 -41 -67 -58 -132 l-14 -53 6 48
c10 90 81 252 139 322 14 17 7 1 -15 -35 -40 -64 -57 -106 -47 -116 7 -8 66
57 67 73 0 6 13 14 29 18 21 4 33 17 47 48 27 59 88 153 143 217 25 30 38 51
29 47 -32 -12 -19 2 43 44 90 61 181 99 294 123 11 2 40 4 65 4 42 0 41 -1
-15 -9z m-545 -302 c0 -2 -10 -12 -22 -23 l-23 -19 19 23 c18 21 26 27 26 19z
m-40 -51 c0 -2 -8 -10 -17 -17 -16 -13 -17 -12 -4 4 13 16 21 21 21 13z m-33
-273 c-39 -120 -52 -209 -52 -343 0 -114 4 -147 23 -210 50 -157 122 -259 224
-316 47 -25 63 -29 136 -29 106 0 109 -18 6 -41 -188 -41 -351 31 -432 192
-35 70 -65 159 -60 176 3 7 10 -10 18 -38 19 -69 87 -204 108 -211 9 -4 31
-21 48 -38 17 -17 48 -39 68 -49 53 -25 158 -41 182 -28 17 9 16 11 -11 18
-48 11 -97 39 -137 78 -42 41 -53 45 -45 16 7 -28 -31 -27 -67 1 -36 28 -25
37 12 10 35 -25 46 -27 39 -6 -4 8 -2 17 3 20 5 3 -10 36 -34 73 -24 37 -48
83 -55 102 -6 19 -24 44 -40 55 -17 11 -32 29 -35 40 -5 17 -8 18 -16 5 -8
-13 -11 -11 -16 8 -9 33 -24 27 -25 -10 -1 -30 -2 -28 -10 12 -5 25 -8 56 -7
70 3 24 3 24 18 -7 8 -18 19 -32 25 -32 24 3 33 -2 39 -23 5 -19 8 -21 16 -8
8 12 10 9 10 -12 0 -16 5 -28 10 -28 14 0 12 16 -5 73 -9 30 -12 65 -8 93 3
24 2 44 -3 44 -5 0 -23 -14 -41 -30 -35 -33 -58 -38 -67 -15 -3 9 0 15 10 15
8 0 25 7 37 15 18 12 22 22 19 48 -4 32 -6 34 -38 30 -19 -2 -34 1 -34 7 0 9
22 15 44 11 5 -1 13 4 17 11 5 8 11 4 18 -16 6 -15 9 -31 6 -36 -3 -4 2 -13
10 -20 12 -10 15 -10 17 1 0 8 2 25 4 39 14 129 67 350 81 337 3 -3 -2 -27
-10 -54z m-27 3 c0 -24 -16 -43 -27 -32 -8 8 6 56 17 56 6 0 10 -11 10 -24z
m-64 -105 c11 9 14 7 14 -14 0 -14 -4 -29 -10 -32 -5 -3 -10 -1 -10 4 0 6 -4
11 -10 11 -5 0 -10 -11 -10 -25 0 -14 -4 -25 -10 -25 -13 0 -13 32 1 67 7 16
13 23 16 15 4 -10 8 -10 19 -1z m-79 -93 c-3 -7 -5 -2 -5 12 0 14 2 19 5 13 2
-7 2 -19 0 -25z m1190 -125 c-3 -10 -5 -2 -5 17 0 19 2 27 5 18 2 -10 2 -26 0
-35z m-1200 -35 c-3 -7 -5 -2 -5 12 0 14 2 19 5 13 2 -7 2 -19 0 -25z m133
-284 c6 -15 19 -39 30 -54 21 -30 26 -50 11 -50 -5 0 -14 14 -21 31 -9 20 -16
27 -23 20 -7 -7 -4 -18 7 -35 9 -15 12 -26 6 -26 -18 0 -51 86 -44 115 8 32
22 32 34 -1z"/>
<path d="M3680 1403 c0 -17 -4 -35 -10 -38 -5 -3 -10 -18 -10 -32 0 -20 4 -24
20 -20 14 3 27 -5 45 -28 29 -39 31 -47 10 -39 -8 3 -17 14 -20 25 -4 10 -13
19 -22 19 -11 0 -13 -5 -8 -17 40 -95 52 -178 35 -243 -6 -25 -13 -54 -16 -65
-3 -11 6 0 21 25 39 67 58 160 50 252 -5 50 -12 78 -20 82 -8 3 -28 29 -44 58
-30 52 -31 52 -31 21z"/>
<path d="M3850 1354 c-6 -14 -10 -33 -10 -42 0 -10 -9 -23 -20 -30 -11 -7 -20
-23 -20 -37 0 -22 3 -25 25 -19 22 5 25 3 25 -20 0 -23 -3 -24 -23 -17 -22 9
-23 7 -24 -37 0 -63 -35 -148 -90 -224 l-45 -63 57 55 c31 30 69 75 83 100 39
64 74 163 61 171 -7 4 -5 17 6 39 15 30 15 33 -1 44 -14 11 -16 22 -11 60 7
51 2 60 -13 20z"/>
<path d="M3488 1333 c-41 -10 -27 -83 16 -83 29 0 49 22 44 51 -3 23 -31 38
-60 32z m32 -33 c0 -5 -4 -10 -10 -10 -5 0 -10 5 -10 10 0 6 5 10 10 10 6 0
10 -4 10 -10z"/>
<path d="M3864 1065 c-24 -50 -50 -88 -81 -114 l-45 -40 85 6 c83 6 85 5 102
-21 30 -46 46 -34 40 31 -7 69 -12 78 -33 60 -19 -16 -83 -39 -90 -33 -2 3 14
14 35 25 58 29 69 46 51 74 -9 13 -13 35 -10 55 8 55 -16 36 -54 -43z"/>
<path d="M3381 688 c-11 -29 -4 -46 20 -53 27 -9 51 13 47 44 -4 36 -54 43
-67 9z m49 -8 c0 -5 -4 -10 -10 -10 -5 0 -10 5 -10 10 0 6 5 10 10 10 6 0 10
-4 10 -10z"/>
</g>
</svg>
