<?xml version="1.0" encoding="utf-8"?>
<!-- Svg Vector Icons : http://www.onlinewebfonts.com/icon -->
<!DOCTYPE svg PUBLIC "-//W3C//DTD SVG 1.1//EN" "http://www.w3.org/Graphics/SVG/1.1/DTD/svg11.dtd">
<svg version="1.1" xmlns="http://www.w3.org/2000/svg" xmlns:xlink="http://www.w3.org/1999/xlink" x="0px" y="0px" viewBox="0 0 1000 1000" enable-background="new 0 0 1000 1000" xml:space="preserve">
<metadata> Svg Vector Icons : http://www.onlinewebfonts.com/icon </metadata>
<g><g transform="translate(0.000000,511.000000) scale(0.100000,-0.100000)"><path d="M4551.8,4999.1C2911.6,4828,1534.4,3931.5,715.3,2503.3C442.3,2028.6,232.4,1401,136.7,781.7C87.8,457.7,87.8-239.1,136.7-563c163-1063.5,603.1-1968.1,1326.4-2724c755.9-790.5,1737.9-1293.8,2864.6-1467c324-48.9,1020.8-48.9,1344.7,0c1065.6,163,1982.4,611.2,2738.3,1338.6C9191-2665.7,9692.2-1681.6,9863.3-563c48.9,324,48.9,1020.8,0,1344.7c-95.8,617.3-293.4,1208.2-568.4,1701.3c-762,1354.9-2061.9,2253.4-3602.2,2485.7C5438,5007.3,4794.2,5023.6,4551.8,4999.1z M5440.1,4589.6C7204.5,4418.5,8704,3212.3,9256.2,1523.3c892.4-2728.1-963.7-5568.3-3826.3-5855.6c-1847.9-183.4-3634.8,817-4455.8,2497.9c-1085.9,2220.8-161,4910.2,2059.8,5988C3791.8,4522.4,4610.9,4671.1,5440.1,4589.6z"/><path d="M4694.4,3601.5c-224.1-22.4-572.5-97.8-798.7-173.2C2681.4,3022.8,1795.1,1987.8,1564.9,710.4c-55-305.6-50.9-880.2,8.1-1196c423.8-2269.7,2854.4-3512.5,4930.6-2522.3c574.6,275.1,1067.6,707,1416,1242.8c660.1,1018.7,741.6,2298.2,218,3398.4c-275.1,576.6-705,1065.6-1246.9,1418c-374.9,244.5-857.7,434-1299.9,509.4C5399.3,3595.4,4871.6,3617.8,4694.4,3601.5z M6691.1,150.1v-1833.7h-264.9h-264.9V-451c0,678.5-6.1,1232.6-12.2,1232.6c-6.1,0-128.3-103.9-271-230.2C5737.5,425.1,5480.8,199,5309.7,50.2l-313.8-271L4892-120.9C4757.6,7.4,3865.2,781.7,3850.9,781.7c-6.1,0-12.2-558.3-12.2-1242.8V-1704h-264.9h-264.9V133.8v1837.7l67.2-63.2c61.1-57,1202.1-1051.3,1473.1-1283.6c69.3-59.1,136.5-108,150.8-108c12.2,0,97.8,67.2,189.5,150.8c177.3,163,1487.3,1314.1,1497.5,1314.1C6689,1983.7,6691.1,1158.6,6691.1,150.1z"/></g></g>
</svg>